<?xml version="1.0" encoding="utf-8"?>
<!-- Generator: Adobe Illustrator 19.2.1, SVG Export Plug-In . SVG Version: 6.00 Build 0)  -->
<svg version="1.1" id="Layer_1" xmlns="http://www.w3.org/2000/svg" xmlns:xlink="http://www.w3.org/1999/xlink" x="0px" y="0px"
	 viewBox="0 0 226.8 70.9" style="enable-background:new 0 0 226.8 70.9;" xml:space="preserve">
<style type="text/css">
	.st0{fill:#F15A29;}
	.st1{fill:#58595B;}
</style>
<g>
	<g>
		<path class="st0" d="M58.6,31.7c2.6,1.4,3.9,3.3,3.9,5.9v1.1c0,2.4-0.7,4.2-2.2,5.4s-3.5,1.8-6,1.8c-2.5,0-4.5-0.6-6-1.8
			s-2.2-3-2.2-5.4V37h6.2v1.8c0,1,0.7,1.6,2,1.6c1.3,0,1.9-0.5,1.9-1.6V38c0-0.8-0.4-1.4-1.2-1.9L50,33.5c-2.6-1.4-3.9-3.4-3.9-5.9
			v-0.9c0-2.4,0.7-4.2,2.1-5.4c1.4-1.2,3.4-1.8,5.9-1.8s4.5,0.6,5.9,1.8c1.4,1.2,2.1,3,2.1,5.4v1.2H56v-1.4c0-1.1-0.6-1.7-1.8-1.7
			c-1.2,0-1.8,0.6-1.8,1.7v0.7c0,0.7,0.4,1.3,1.3,1.7L58.6,31.7z"/>
	</g>
	<g>
		<path class="st0" d="M71,38.5c0,1.2,0.7,1.7,2.1,1.7c1.4,0,2.1-0.6,2.1-1.7v-2h6.2v1.9c0,2.4-0.8,4.3-2.3,5.6
			c-1.5,1.3-3.5,1.9-6.1,1.9c-2.5,0-4.6-0.6-6.1-1.9c-1.5-1.3-2.3-3.1-2.3-5.6V27c0-2.4,0.8-4.3,2.3-5.6c1.5-1.3,3.5-1.9,6.1-1.9
			c2.5,0,4.6,0.6,6.1,1.9c1.5,1.3,2.3,3.1,2.3,5.6v7.6H71V38.5z M75.3,26.8c0-1.2-0.7-1.7-2.2-1.7c-1.4,0-2.1,0.6-2.1,1.7v2.8h4.3
			V26.8z"/>
	</g>
	<g>
		<path class="st0" d="M84.9,10.1h6.4v35.3h-6.4V10.1z"/>
	</g>
	<g>
		<path class="st0" d="M99.8,42h6.4v6.6h-6.4V42z"/>
	</g>
	<g>
		<path class="st0" d="M104.9,38.4v-2.6h6.3v2.6c0,2.5-0.7,4.3-2.2,5.6c-1.5,1.3-3.5,1.9-6,1.9c-2.5,0-4.5-0.6-6-1.9
			c-1.5-1.3-2.2-3.1-2.2-5.6V27c0-2.5,0.7-4.3,2.2-5.6c1.5-1.3,3.5-1.9,6-1.9c2.5,0,4.5,0.6,6,1.9c1.5,1.3,2.2,3.1,2.2,5.6v2.6h-6.3
			V27c0-1.2-0.6-1.7-1.9-1.7c-1.3,0-1.9,0.6-1.9,1.7v11.4c0,1.2,0.6,1.7,1.9,1.7C104.3,40.1,104.9,39.5,104.9,38.4z"/>
	</g>
	<g>
		<path class="st0" d="M130.7,19.9v25.5h-6v-2.6c-0.2,0.7-0.7,1.4-1.6,1.9c-0.8,0.6-2,0.8-3.5,0.8c-1.9,0-3.3-0.6-4.3-1.7
			c-0.9-1.1-1.4-2.6-1.4-4.4V19.9h6.4v18.3c0,0.6,0.2,1.1,0.5,1.4c0.3,0.3,0.8,0.5,1.4,0.5c0.6,0,1.1-0.2,1.4-0.5
			c0.3-0.3,0.5-0.8,0.5-1.4V19.9H130.7z"/>
	</g>
	<g>
		<path class="st0" d="M144.4,45.4L140.7,34v11.4h-6.4V10.1h6.4v20.1l3.7-10.3h6.4L146.5,32l4.6,13.5H144.4z"/>
	</g>
	<g>
		<path class="st0" d="M154,10.1h6.4v35.3H154V10.1z"/>
	</g>
	<g>
		<path class="st0" d="M179.7,19.9v25.5h-6v-2.6c-0.2,0.7-0.7,1.4-1.6,1.9c-0.8,0.6-2,0.8-3.5,0.8c-1.9,0-3.3-0.6-4.3-1.7
			c-0.9-1.1-1.4-2.6-1.4-4.4V19.9h6.4v18.3c0,0.6,0.2,1.1,0.5,1.4c0.3,0.3,0.8,0.5,1.4,0.5s1.1-0.2,1.4-0.5c0.3-0.3,0.5-0.8,0.5-1.4
			V19.9H179.7z"/>
	</g>
	<g>
		<path class="st0" d="M206,26.8h-22.9v-6.9h29.5v0.3C212.6,23.9,209.6,26.8,206,26.8z"/>
	</g>
	<g>
		<path class="st1" d="M200.7,36.1h-17.6v-6.9h24.2v0.3C207.3,33.2,204.3,36.1,200.7,36.1z"/>
	</g>
	<g>
		<path class="st0" d="M195.2,45.4h-12.1v-6.9h18.7v0.3C201.8,42.5,198.8,45.4,195.2,45.4z"/>
	</g>
	<g>
		<path class="st0" d="M20.8,38.5h22.9v6.9H14.2v-0.3C14.2,41.5,17.1,38.5,20.8,38.5z"/>
	</g>
	<g>
		<path class="st1" d="M26.1,29.2h17.6v6.9H19.5v-0.3C19.5,32.2,22.4,29.2,26.1,29.2z"/>
	</g>
	<g>
		<path class="st0" d="M31.6,19.9h12.1v6.9H25v-0.3C25,22.9,28,19.9,31.6,19.9z"/>
	</g>
	<g>
		<path class="st1" d="M74.6,54.2c-0.2-0.1-0.4-0.1-0.6-0.1c-0.3,0-0.5,0.1-0.7,0.3s-0.3,0.5-0.3,0.8v5.4h-2.1v-8.5h2v1.2
			c0-0.3,0.2-0.6,0.4-0.9s0.6-0.4,1-0.4c0.1,0,0.2,0,0.3,0V54.2z"/>
		<path class="st1" d="M80.8,58.3c0,0.4,0.2,0.6,0.7,0.6s0.7-0.2,0.7-0.6v-0.7h2.1v0.6c0,0.8-0.3,1.4-0.8,1.9
			c-0.5,0.4-1.2,0.6-2,0.6s-1.5-0.2-2-0.6c-0.5-0.4-0.8-1-0.8-1.9v-3.8c0-0.8,0.3-1.4,0.8-1.9c0.5-0.4,1.2-0.6,2-0.6s1.5,0.2,2,0.6
			c0.5,0.4,0.8,1,0.8,1.9v2.5h-3.5V58.3z M82.2,54.4c0-0.4-0.2-0.6-0.7-0.6c-0.5,0-0.7,0.2-0.7,0.6v0.9h1.4V54.4z"/>
		<path class="st1" d="M89.1,60.6v-8.5h2v0.9c0.1-0.3,0.3-0.5,0.6-0.6s0.6-0.3,1-0.3c0.6,0,1.1,0.2,1.4,0.5s0.5,0.8,0.5,1.4v6.6
			h-2.1v-6.1c0-0.2-0.1-0.4-0.2-0.5s-0.3-0.2-0.5-0.2s-0.4,0.1-0.5,0.2s-0.2,0.3-0.2,0.5v6.1H89.1z"/>
		<path class="st1" d="M98.9,52.1h0.9l0.5-1.5h1.5v1.5h1.3v1.8h-1.3v4.3c0,0.3,0.2,0.5,0.5,0.5c0.2,0,0.3,0,0.4-0.1s0.2-0.1,0.3-0.1
			l0.1,0v1.9c-0.3,0.2-0.8,0.2-1.3,0.2c-1.5,0-2.2-0.8-2.2-2.4v-4.4h-0.8V52.1z"/>
		<path class="st1" d="M113,54.4c0-0.8,0.2-1.4,0.7-1.8s1.2-0.6,2-0.6s1.5,0.2,2,0.6s0.7,1,0.7,1.8v6.2h-2.1v-0.7
			c0,0.1-0.1,0.2-0.1,0.3s-0.2,0.2-0.4,0.3s-0.5,0.2-0.8,0.2c-0.7,0-1.2-0.2-1.5-0.5s-0.6-0.9-0.6-1.5v-0.5c0-0.5,0.1-1,0.4-1.3
			c0.3-0.3,0.7-0.6,1.3-0.8l1.8-0.7v-1c0-0.4-0.2-0.5-0.6-0.5c-0.4,0-0.6,0.2-0.6,0.5V55H113V54.4z M115.1,58.4
			c0,0.4,0.2,0.6,0.7,0.6c0.4,0,0.6-0.2,0.6-0.6v-1.2l-0.7,0.3c-0.2,0.1-0.4,0.2-0.4,0.3s-0.1,0.3-0.1,0.5V58.4z"/>
		<path class="st1" d="M132.4,58.2v-0.9h2.1v0.9c0,0.8-0.2,1.4-0.7,1.9s-1.2,0.6-2,0.6c-0.8,0-1.5-0.2-2-0.6s-0.7-1-0.7-1.9v-3.8
			c0-0.8,0.2-1.4,0.7-1.9s1.2-0.6,2-0.6c0.8,0,1.5,0.2,2,0.6s0.7,1,0.7,1.9v0.9h-2.1v-0.9c0-0.4-0.2-0.6-0.6-0.6
			c-0.4,0-0.6,0.2-0.6,0.6v3.8c0,0.4,0.2,0.6,0.6,0.6C132.2,58.8,132.4,58.6,132.4,58.2z"/>
		<path class="st1" d="M138.8,54.4c0-0.8,0.2-1.4,0.7-1.8s1.2-0.6,2-0.6s1.5,0.2,2,0.6s0.7,1,0.7,1.8v6.2h-2.1v-0.7
			c0,0.1-0.1,0.2-0.1,0.3s-0.2,0.2-0.4,0.3s-0.5,0.2-0.8,0.2c-0.7,0-1.2-0.2-1.5-0.5s-0.6-0.9-0.6-1.5v-0.5c0-0.5,0.1-1,0.4-1.3
			c0.3-0.3,0.7-0.6,1.3-0.8l1.8-0.7v-1c0-0.4-0.2-0.5-0.6-0.5c-0.4,0-0.6,0.2-0.6,0.5V55h-2.1V54.4z M140.9,58.4
			c0,0.4,0.2,0.6,0.7,0.6c0.4,0,0.6-0.2,0.6-0.6v-1.2l-0.7,0.3c-0.2,0.1-0.4,0.2-0.4,0.3s-0.1,0.3-0.1,0.5V58.4z"/>
		<path class="st1" d="M152.9,54.2c-0.2-0.1-0.4-0.1-0.6-0.1c-0.3,0-0.5,0.1-0.7,0.3s-0.3,0.5-0.3,0.8v5.4h-2.1v-8.5h2v1.2
			c0-0.3,0.2-0.6,0.4-0.9s0.6-0.4,1-0.4c0.1,0,0.2,0,0.3,0V54.2z"/>
	</g>
</g>
</svg>
