<?xml version="1.0" encoding="utf-8"?>
<!-- Generator: Adobe Illustrator 19.2.1, SVG Export Plug-In . SVG Version: 6.00 Build 0)  -->
<svg version="1.1" id="Layer_1" xmlns="http://www.w3.org/2000/svg" xmlns:xlink="http://www.w3.org/1999/xlink" x="0px" y="0px"
	 viewBox="0 0 226.8 70.9" style="enable-background:new 0 0 226.8 70.9;" xml:space="preserve">
<style type="text/css">
	.st0{fill:#FFFFFF;}
</style>
<g>
	<g>
		<path class="st0" d="M58.6,30.8c2.6,1.4,3.9,3.3,3.9,5.9v1.1c0,2.4-0.7,4.2-2.2,5.4s-3.5,1.8-6,1.8s-4.5-0.6-6-1.8s-2.2-3-2.2-5.4
			v-1.7h6.2v1.8c0,1,0.7,1.6,2,1.6s1.9-0.5,1.9-1.6v-0.8c0-0.8-0.4-1.4-1.2-1.9l-5-2.6c-2.6-1.4-3.9-3.4-3.9-5.9v-0.9
			c0-2.4,0.7-4.2,2.1-5.4c1.4-1.2,3.4-1.8,5.9-1.8s4.5,0.6,5.9,1.8c1.4,1.2,2.1,3,2.1,5.4V27H56v-1.4c0-1.1-0.6-1.7-1.8-1.7
			s-1.8,0.6-1.8,1.7v0.7c0,0.7,0.4,1.3,1.3,1.7L58.6,30.8z"/>
	</g>
	<g>
		<path class="st0" d="M71,37.6c0,1.2,0.7,1.7,2.1,1.7s2.1-0.6,2.1-1.7v-2h6.2v1.9c0,2.4-0.8,4.3-2.3,5.6S75.6,45,73,45
			c-2.5,0-4.6-0.6-6.1-1.9c-1.5-1.3-2.3-3.1-2.3-5.6V26.1c0-2.4,0.8-4.3,2.3-5.6c1.5-1.3,3.5-1.9,6.1-1.9c2.5,0,4.6,0.6,6.1,1.9
			s2.3,3.1,2.3,5.6v7.6H71V37.6z M75.3,25.9c0-1.2-0.7-1.7-2.2-1.7c-1.4,0-2.1,0.6-2.1,1.7v2.8h4.3C75.3,28.7,75.3,25.9,75.3,25.9z"
			/>
	</g>
	<g>
		<path class="st0" d="M99.8,41.1h6.4v6.6h-6.4V41.1z"/>
	</g>
	<g>
		<path class="st0" d="M104.9,37.5v-2.6h6.3v2.6c0,2.5-0.7,4.3-2.2,5.6s-3.5,1.9-6,1.9s-4.5-0.6-6-1.9c-1.5-1.3-2.2-3.1-2.2-5.6
			V26.1c0-2.5,0.7-4.3,2.2-5.6c1.5-1.3,3.5-1.9,6-1.9s4.5,0.6,6,1.9s2.2,3.1,2.2,5.6v2.6h-6.3v-2.6c0-1.2-0.6-1.7-1.9-1.7
			s-1.9,0.6-1.9,1.7v11.4c0,1.2,0.6,1.7,1.9,1.7C104.3,39.2,104.9,38.6,104.9,37.5z"/>
	</g>
	<g>
		<path class="st0" d="M130.7,19v25.5h-6v-2.6c-0.2,0.7-0.7,1.4-1.6,1.9c-0.8,0.6-2,0.8-3.5,0.8c-1.9,0-3.3-0.6-4.3-1.7
			c-0.9-1.1-1.4-2.6-1.4-4.4V19h6.4v18.3c0,0.6,0.2,1.1,0.5,1.4c0.3,0.3,0.8,0.5,1.4,0.5s1.1-0.2,1.4-0.5s0.5-0.8,0.5-1.4V19H130.7z
			"/>
	</g>
	<g>
		<path class="st0" d="M144.4,44.5l-3.7-11.4v11.4h-6.4V19h6.4v10.3l3.7-10.3h6.4l-4.3,12.1l4.6,13.5L144.4,44.5L144.4,44.5z"/>
	</g>
	<g>
		<path class="st0" d="M179.7,19v25.5h-6v-2.6c-0.2,0.7-0.7,1.4-1.6,1.9c-0.8,0.6-2,0.8-3.5,0.8c-1.9,0-3.3-0.6-4.3-1.7
			c-0.9-1.1-1.4-2.6-1.4-4.4V19h6.4v18.3c0,0.6,0.2,1.1,0.5,1.4c0.3,0.3,0.8,0.5,1.4,0.5s1.1-0.2,1.4-0.5c0.3-0.3,0.5-0.8,0.5-1.4
			V19H179.7z"/>
	</g>
	<g>
		<path class="st0" d="M206,25.9h-22.9V19h29.5v0.3C212.6,23,209.6,25.9,206,25.9z"/>
	</g>
	<g>
		<path class="st0" d="M200.7,35.2h-17.6v-6.9h24.2v0.3C207.3,32.3,204.3,35.2,200.7,35.2z"/>
	</g>
	<g>
		<path class="st0" d="M195.2,44.5h-12.1v-6.9h18.7v0.3C201.8,41.6,198.8,44.5,195.2,44.5z"/>
	</g>
	<g>
		<path class="st0" d="M20.8,37.6h22.9v6.9H14.2v-0.3C14.2,40.6,17.1,37.6,20.8,37.6z"/>
	</g>
	<g>
		<path class="st0" d="M26.1,28.3h17.6v6.9H19.5v-0.3C19.5,31.3,22.4,28.3,26.1,28.3z"/>
	</g>
	<g>
		<path class="st0" d="M31.6,19h12.1v6.9H25v-0.3C25,22,28,19,31.6,19z"/>
	</g>
	<g>
		<path class="st0" d="M69,54c-0.2-0.1-0.5-0.1-0.7-0.1c-0.4,0-0.6,0.1-0.8,0.4c-0.2,0.2-0.4,0.6-0.4,0.9v6.3h-2.5v-9.9H67V53
			c0-0.4,0.2-0.7,0.5-1.1c0.2-0.4,0.7-0.5,1.2-0.5c0.1,0,0.2,0,0.4,0C69,51.4,69,54,69,54z"/>
		<path class="st0" d="M76.3,58.8c0,0.5,0.2,0.7,0.8,0.7c0.6,0,0.8-0.2,0.8-0.7V58h2.5v0.7c0,0.9-0.4,1.6-0.9,2.2
			c-0.6,0.5-1.4,0.7-2.3,0.7s-1.8-0.2-2.3-0.7c-0.6-0.5-0.9-1.2-0.9-2.2v-4.4c0-0.9,0.4-1.6,0.9-2.2c0.6-0.5,1.4-0.7,2.3-0.7
			s1.8,0.2,2.3,0.7c0.6,0.5,0.9,1.2,0.9,2.2v2.9h-4.1C76.3,57.2,76.3,58.8,76.3,58.8z M77.9,54.2c0-0.5-0.2-0.7-0.8-0.7
			c-0.6,0-0.8,0.2-0.8,0.7v1.1h1.6C77.9,55.3,77.9,54.2,77.9,54.2z"/>
		<path class="st0" d="M85.9,61.5v-9.9h2.3v1.1c0.1-0.4,0.4-0.6,0.7-0.7s0.7-0.4,1.2-0.4c0.7,0,1.3,0.2,1.6,0.6
			c0.4,0.4,0.6,0.9,0.6,1.6v7.7h-2.5v-7.1c0-0.2-0.1-0.5-0.2-0.6s-0.4-0.2-0.6-0.2s-0.5,0.1-0.6,0.2c-0.1,0.1-0.2,0.4-0.2,0.6v7.1
			C88.3,61.5,85.9,61.5,85.9,61.5z"/>
		<path class="st0" d="M97.4,51.6h1.1l0.6-1.8h1.8v1.8h1.5v2.1h-1.5v5c0,0.4,0.2,0.6,0.6,0.6c0.2,0,0.4,0,0.5-0.1s0.2-0.1,0.4-0.1
			h0.1v2.2c-0.4,0.2-0.9,0.2-1.5,0.2c-1.8,0-2.6-0.9-2.6-2.8v-5.1h-0.9L97.4,51.6C97.5,51.6,97.4,51.6,97.4,51.6z"/>
		<path class="st0" d="M113.8,54.2c0-0.9,0.2-1.6,0.8-2.1c0.6-0.5,1.4-0.7,2.3-0.7s1.8,0.2,2.3,0.7c0.6,0.5,0.8,1.2,0.8,2.1v7.2
			h-2.5v-0.8c0,0.1-0.1,0.2-0.1,0.4s-0.2,0.2-0.5,0.4c-0.2,0.1-0.6,0.2-0.9,0.2c-0.8,0-1.4-0.2-1.8-0.6c-0.4-0.4-0.7-1.1-0.7-1.8
			v-0.6c0-0.6,0.1-1.2,0.5-1.5c0.4-0.4,0.8-0.7,1.5-0.9l2.1-0.8v-1.2c0-0.5-0.2-0.6-0.7-0.6s-0.7,0.2-0.7,0.6v0.7h-2.6v-0.7H113.8z
			 M116.3,58.9c0,0.5,0.2,0.7,0.8,0.7c0.5,0,0.7-0.2,0.7-0.7v-1.4l-0.8,0.4c-0.2,0.1-0.5,0.2-0.5,0.4S116.4,58.7,116.3,58.9
			L116.3,58.9L116.3,58.9L116.3,58.9z"/>
		<path class="st0" d="M136.5,58.7v-1.1h2.5v1.1c0,0.9-0.2,1.6-0.8,2.2c-0.6,0.6-1.4,0.7-2.3,0.7c-0.9,0-1.8-0.2-2.3-0.7
			c-0.6-0.5-0.8-1.2-0.8-2.2v-4.4c0-0.9,0.2-1.6,0.8-2.2c0.6-0.6,1.4-0.7,2.3-0.7c0.9,0,1.8,0.2,2.3,0.7s0.8,1.2,0.8,2.2v1.1h-2.5
			v-1.1c0-0.5-0.2-0.7-0.7-0.7s-0.7,0.2-0.7,0.7v4.4c0,0.5,0.2,0.7,0.7,0.7C136.2,59.4,136.5,59.1,136.5,58.7z"/>
		<path class="st0" d="M144,54.2c0-0.9,0.2-1.6,0.8-2.1s1.4-0.7,2.3-0.7s1.8,0.2,2.3,0.7c0.6,0.5,0.8,1.2,0.8,2.1v7.2h-2.5v-0.8
			c0,0.1-0.1,0.2-0.1,0.4s-0.2,0.2-0.5,0.4c-0.2,0.1-0.6,0.2-0.9,0.2c-0.8,0-1.4-0.2-1.8-0.6c-0.4-0.4-0.7-1.1-0.7-1.8v-0.6
			c0-0.6,0.1-1.2,0.5-1.5c0.4-0.4,0.8-0.7,1.5-0.9l2.1-0.8v-1.2c0-0.5-0.2-0.6-0.7-0.6s-0.7,0.2-0.7,0.6v0.7h-2.5L144,54.2
			C143.9,54.2,144,54.2,144,54.2z M146.4,58.9c0,0.5,0.2,0.7,0.8,0.7c0.5,0,0.7-0.2,0.7-0.7v-1.4l-0.8,0.4c-0.2,0.1-0.5,0.2-0.5,0.4
			S146.5,58.7,146.4,58.9L146.4,58.9L146.4,58.9L146.4,58.9z"/>
		<path class="st0" d="M160.4,54c-0.2-0.1-0.5-0.1-0.7-0.1c-0.4,0-0.6,0.1-0.8,0.4c-0.2,0.2-0.4,0.6-0.4,0.9v6.3H156v-9.9h2.3V53
			c0-0.4,0.2-0.7,0.5-1.1c0.2-0.4,0.7-0.5,1.2-0.5c0.1,0,0.2,0,0.4,0V54L160.4,54z"/>
	</g>
	<path class="st0" d="M84.9,9.3L84.9,9.3c-3.6,0-6.5,2.9-6.5,6.5h6.5v28.8h6.4V9.3H84.9z"/>
	<path class="st0" d="M160.4,9.3L160.4,9.3l-6.4,0v35.3h6.4V15.9v-0.1h6.6C167,12.2,164,9.3,160.4,9.3z"/>
</g>
</svg>
