<?xml version="1.0" encoding="utf-8"?>
<!-- Generator: Adobe Illustrator 19.2.1, SVG Export Plug-In . SVG Version: 6.00 Build 0)  -->
<svg version="1.1" id="Layer_1" xmlns="http://www.w3.org/2000/svg" xmlns:xlink="http://www.w3.org/1999/xlink" x="0px" y="0px"
	 viewBox="0 0 226.8 70.9" style="enable-background:new 0 0 226.8 70.9;" xml:space="preserve">
<style type="text/css">
	.st0{fill:#F15A29;}
	.st1{fill:#58595B;}
</style>
<g>
	<path class="st0" d="M58.6,31.7c2.6,1.4,3.9,3.3,3.9,5.9v1.1c0,2.4-0.7,4.2-2.2,5.4s-3.5,1.8-6,1.8s-4.5-0.6-6-1.8s-2.2-3-2.2-5.4
		V37h6.2v1.8c0,1,0.7,1.6,2,1.6s1.9-0.5,1.9-1.6V38c0-0.8-0.4-1.4-1.2-1.9l-5-2.6c-2.6-1.4-3.9-3.4-3.9-5.9v-0.9
		c0-2.4,0.7-4.2,2.1-5.4c1.4-1.2,3.4-1.8,5.9-1.8s4.5,0.6,5.9,1.8c1.4,1.2,2.1,3,2.1,5.4v1.2H56v-1.4c0-1.1-0.6-1.7-1.8-1.7
		s-1.8,0.6-1.8,1.7v0.7c0,0.7,0.4,1.3,1.3,1.7L58.6,31.7z"/>
</g>
<g>
	<path class="st0" d="M71,38.5c0,1.2,0.7,1.7,2.1,1.7s2.1-0.6,2.1-1.7v-2h6.2v1.9c0,2.4-0.8,4.3-2.3,5.6s-3.5,1.9-6.1,1.9
		c-2.5,0-4.6-0.6-6.1-1.9c-1.5-1.3-2.3-3.1-2.3-5.6V27c0-2.4,0.8-4.3,2.3-5.6c1.5-1.3,3.5-1.9,6.1-1.9c2.5,0,4.6,0.6,6.1,1.9
		s2.3,3.1,2.3,5.6v7.6H71V38.5z M75.3,26.8c0-1.2-0.7-1.7-2.2-1.7c-1.4,0-2.1,0.6-2.1,1.7v2.8h4.3C75.3,29.6,75.3,26.8,75.3,26.8z"
		/>
</g>
<g>
	<path class="st0" d="M99.8,42h6.4v6.6h-6.4V42z"/>
</g>
<g>
	<path class="st0" d="M104.9,38.4v-2.6h6.3v2.6c0,2.5-0.7,4.3-2.2,5.6s-3.5,1.9-6,1.9s-4.5-0.6-6-1.9c-1.5-1.3-2.2-3.1-2.2-5.6V27
		c0-2.5,0.7-4.3,2.2-5.6c1.5-1.3,3.5-1.9,6-1.9s4.5,0.6,6,1.9s2.2,3.1,2.2,5.6v2.6h-6.3V27c0-1.2-0.6-1.7-1.9-1.7s-1.9,0.6-1.9,1.7
		v11.4c0,1.2,0.6,1.7,1.9,1.7C104.3,40.1,104.9,39.5,104.9,38.4z"/>
</g>
<g>
	<path class="st0" d="M130.7,19.9v25.5h-6v-2.6c-0.2,0.7-0.7,1.4-1.6,1.9c-0.8,0.6-2,0.8-3.5,0.8c-1.9,0-3.3-0.6-4.3-1.7
		c-0.9-1.1-1.4-2.6-1.4-4.4V19.9h6.4v18.3c0,0.6,0.2,1.1,0.5,1.4c0.3,0.3,0.8,0.5,1.4,0.5s1.1-0.2,1.4-0.5s0.5-0.8,0.5-1.4V19.9
		H130.7z"/>
</g>
<g>
	<path class="st0" d="M144.4,45.4L140.7,34v11.4h-6.4V19.9h6.4v10.3l3.7-10.3h6.4L146.5,32l4.6,13.5L144.4,45.4L144.4,45.4z"/>
</g>
<g>
	<path class="st0" d="M179.7,19.9v25.5h-6v-2.6c-0.2,0.7-0.7,1.4-1.6,1.9c-0.8,0.6-2,0.8-3.5,0.8c-1.9,0-3.3-0.6-4.3-1.7
		c-0.9-1.1-1.4-2.6-1.4-4.4V19.9h6.4v18.3c0,0.6,0.2,1.1,0.5,1.4c0.3,0.3,0.8,0.5,1.4,0.5s1.1-0.2,1.4-0.5c0.3-0.3,0.5-0.8,0.5-1.4
		V19.9H179.7z"/>
</g>
<g>
	<path class="st0" d="M206,26.8h-22.9v-6.9h29.5v0.3C212.6,23.9,209.6,26.8,206,26.8z"/>
</g>
<g>
	<path class="st1" d="M200.7,36.1h-17.6v-6.9h24.2v0.3C207.3,33.2,204.3,36.1,200.7,36.1z"/>
</g>
<g>
	<path class="st0" d="M195.2,45.4h-12.1v-6.9h18.7v0.3C201.8,42.5,198.8,45.4,195.2,45.4z"/>
</g>
<g>
	<path class="st0" d="M20.8,38.5h22.9v6.9H14.2v-0.3C14.2,41.5,17.1,38.5,20.8,38.5z"/>
</g>
<g>
	<path class="st1" d="M26.1,29.2h17.6v6.9H19.5v-0.3C19.5,32.2,22.4,29.2,26.1,29.2z"/>
</g>
<g>
	<path class="st0" d="M31.6,19.9h12.1v6.9H25v-0.3C25,22.9,28,19.9,31.6,19.9z"/>
</g>
<g>
	<path class="st1" d="M69,54.9c-0.2-0.1-0.5-0.1-0.7-0.1c-0.4,0-0.6,0.1-0.8,0.4c-0.2,0.2-0.4,0.6-0.4,0.9v6.3h-2.5v-9.9H67v1.4
		c0-0.4,0.2-0.7,0.5-1.1c0.2-0.4,0.7-0.5,1.2-0.5c0.1,0,0.2,0,0.4,0C69,52.3,69,54.9,69,54.9z"/>
	<path class="st1" d="M76.3,59.7c0,0.5,0.2,0.7,0.8,0.7c0.6,0,0.8-0.2,0.8-0.7v-0.8h2.5v0.7c0,0.9-0.4,1.6-0.9,2.2
		c-0.6,0.5-1.4,0.7-2.3,0.7s-1.8-0.2-2.3-0.7c-0.6-0.5-0.9-1.2-0.9-2.2v-4.4c0-0.9,0.4-1.6,0.9-2.2c0.6-0.5,1.4-0.7,2.3-0.7
		s1.8,0.2,2.3,0.7c0.6,0.5,0.9,1.2,0.9,2.2v2.9h-4.1C76.3,58.1,76.3,59.7,76.3,59.7z M77.9,55.1c0-0.5-0.2-0.7-0.8-0.7
		c-0.6,0-0.8,0.2-0.8,0.7v1.1h1.6C77.9,56.2,77.9,55.1,77.9,55.1z"/>
	<path class="st1" d="M85.9,62.4v-9.9h2.3v1.1c0.1-0.4,0.4-0.6,0.7-0.7s0.7-0.4,1.2-0.4c0.7,0,1.3,0.2,1.6,0.6
		c0.4,0.4,0.6,0.9,0.6,1.6v7.7h-2.5v-7.1c0-0.2-0.1-0.5-0.2-0.6s-0.4-0.2-0.6-0.2s-0.5,0.1-0.6,0.2c-0.1,0.1-0.2,0.4-0.2,0.6v7.1
		C88.3,62.4,85.9,62.4,85.9,62.4z"/>
	<path class="st1" d="M97.4,52.5h1.1l0.6-1.8h1.8v1.8h1.5v2.1h-1.5v5c0,0.4,0.2,0.6,0.6,0.6c0.2,0,0.4,0,0.5-0.1s0.2-0.1,0.4-0.1
		h0.1v2.2c-0.4,0.2-0.9,0.2-1.5,0.2c-1.8,0-2.6-0.9-2.6-2.8v-5.1h-0.9L97.4,52.5C97.5,52.5,97.4,52.5,97.4,52.5z"/>
	<path class="st1" d="M113.8,55.1c0-0.9,0.2-1.6,0.8-2.1c0.6-0.5,1.4-0.7,2.3-0.7s1.8,0.2,2.3,0.7c0.6,0.5,0.8,1.2,0.8,2.1v7.2h-2.5
		v-0.8c0,0.1-0.1,0.2-0.1,0.4s-0.2,0.2-0.5,0.4c-0.2,0.1-0.6,0.2-0.9,0.2c-0.8,0-1.4-0.2-1.8-0.6c-0.4-0.4-0.7-1.1-0.7-1.8v-0.6
		c0-0.6,0.1-1.2,0.5-1.5c0.4-0.4,0.8-0.7,1.5-0.9l2.1-0.8v-1.2c0-0.5-0.2-0.6-0.7-0.6s-0.7,0.2-0.7,0.6v0.7h-2.6v-0.7H113.8z
		 M116.3,59.8c0,0.5,0.2,0.7,0.8,0.7c0.5,0,0.7-0.2,0.7-0.7v-1.4l-0.8,0.4c-0.2,0.1-0.5,0.2-0.5,0.4S116.4,59.6,116.3,59.8
		L116.3,59.8L116.3,59.8L116.3,59.8z"/>
	<path class="st1" d="M136.5,59.6v-1.1h2.5v1.1c0,0.9-0.2,1.6-0.8,2.2c-0.6,0.6-1.4,0.7-2.3,0.7c-0.9,0-1.8-0.2-2.3-0.7
		c-0.6-0.5-0.8-1.2-0.8-2.2v-4.4c0-0.9,0.2-1.6,0.8-2.2c0.6-0.6,1.4-0.7,2.3-0.7c0.9,0,1.8,0.2,2.3,0.7s0.8,1.2,0.8,2.2v1.1h-2.5
		v-1.1c0-0.5-0.2-0.7-0.7-0.7s-0.7,0.2-0.7,0.7v4.4c0,0.5,0.2,0.7,0.7,0.7C136.2,60.3,136.5,60,136.5,59.6z"/>
	<path class="st1" d="M144,55.1c0-0.9,0.2-1.6,0.8-2.1s1.4-0.7,2.3-0.7s1.8,0.2,2.3,0.7c0.6,0.5,0.8,1.2,0.8,2.1v7.2h-2.5v-0.8
		c0,0.1-0.1,0.2-0.1,0.4s-0.2,0.2-0.5,0.4c-0.2,0.1-0.6,0.2-0.9,0.2c-0.8,0-1.4-0.2-1.8-0.6c-0.4-0.4-0.7-1.1-0.7-1.8v-0.6
		c0-0.6,0.1-1.2,0.5-1.5c0.4-0.4,0.8-0.7,1.5-0.9l2.1-0.8v-1.2c0-0.5-0.2-0.6-0.7-0.6s-0.7,0.2-0.7,0.6v0.7h-2.5L144,55.1
		C143.9,55.1,144,55.1,144,55.1z M146.4,59.8c0,0.5,0.2,0.7,0.8,0.7c0.5,0,0.7-0.2,0.7-0.7v-1.4l-0.8,0.4c-0.2,0.1-0.5,0.2-0.5,0.4
		S146.5,59.6,146.4,59.8L146.4,59.8L146.4,59.8L146.4,59.8z"/>
	<path class="st1" d="M160.4,54.9c-0.2-0.1-0.5-0.1-0.7-0.1c-0.4,0-0.6,0.1-0.8,0.4c-0.2,0.2-0.4,0.6-0.4,0.9v6.3H156v-9.9h2.3v1.4
		c0-0.4,0.2-0.7,0.5-1.1c0.2-0.4,0.7-0.5,1.2-0.5c0.1,0,0.2,0,0.4,0V54.9L160.4,54.9z"/>
</g>
<path class="st0" d="M84.9,10.1L84.9,10.1c-3.6,0-6.5,2.9-6.5,6.5h6.5v28.8h6.4V10.1H84.9z"/>
<path class="st0" d="M160.4,10.1L160.4,10.1l-6.4,0v35.3h6.4V16.7v-0.1h6.6C167,13,164,10.1,160.4,10.1z"/>
</svg>
